<svg width="1920" height="960" viewBox="0 0 1920 960" fill="none" xmlns="http://www.w3.org/2000/svg">
<rect width="1920" height="960" fill="#E1D4C9"/>
<path d="M1091.1 445.5C1091.1 517.905 1032.4 576.6 960 576.6C887.596 576.6 828.9 517.905 828.9 445.5C828.9 373.095 887.596 314.4 960 314.4C1032.4 314.4 1091.1 373.095 1091.1 445.5Z" fill="#B0907A"/>
<path d="M1275.18 426.81C1276.61 426.685 1277.77 427.248 1278.65 428.501C1279.65 429.743 1280.25 431.52 1280.45 433.829C1280.8 437.788 1280.16 441.28 1278.54 444.303C1275.87 449.301 1272.13 453.342 1267.3 456.424C1262.58 459.496 1256.76 461.336 1249.83 461.942C1239.27 462.865 1230.8 460.448 1224.43 454.689C1218.04 448.82 1214.37 440.497 1213.43 429.719C1212.77 422.13 1213.75 414.952 1216.37 408.184C1218.98 401.306 1222.92 395.697 1228.19 391.357C1233.58 387.007 1239.84 384.52 1246.99 383.895C1253.37 383.336 1258.65 384.814 1262.84 388.326C1267.01 391.729 1269.39 396.674 1269.95 403.163C1270.62 410.752 1268.44 417.536 1263.42 423.516C1258.51 429.377 1249.64 434.474 1236.83 438.809C1239.92 443.637 1244.59 445.777 1250.86 445.228C1255.37 444.834 1258.96 443.467 1261.64 441.127C1264.43 438.777 1267.53 434.96 1270.94 429.674C1272.12 427.909 1273.53 426.954 1275.18 426.81ZM1245.6 400.307C1241.53 400.663 1238.27 403.331 1235.83 408.31C1233.49 413.28 1232.62 419.119 1233.2 425.828L1233.23 426.158C1239.59 424.05 1244.5 421.293 1247.97 417.887C1251.44 414.48 1253 410.742 1252.64 406.673C1252.46 404.583 1251.71 402.986 1250.39 401.882C1249.18 400.659 1247.58 400.134 1245.6 400.307Z" fill="#403F3D"/>
<path d="M1189.75 467.198C1178.98 468.141 1170.3 465.852 1163.72 460.333C1157.24 454.693 1153.56 446.87 1152.69 436.861C1151.91 427.953 1152.99 419.99 1155.92 412.974C1158.85 405.957 1162.96 400.389 1168.25 396.269C1173.55 392.149 1179.27 389.819 1185.43 389.28C1191.48 388.751 1196.31 390.157 1199.93 393.498C1203.65 396.719 1205.75 401.134 1206.24 406.743C1206.64 411.362 1205.94 415.357 1204.13 418.73C1202.43 422.092 1199.93 423.918 1196.63 424.207C1194.54 424.389 1192.79 424.044 1191.39 423.169C1190.09 422.285 1189.37 420.964 1189.21 419.204C1189.14 418.434 1189.18 417.545 1189.31 416.535C1189.44 415.526 1189.55 414.797 1189.62 414.348C1190.02 412.65 1190.16 411.086 1190.04 409.656C1189.91 408.227 1189.43 407.16 1188.6 406.458C1187.87 405.746 1186.84 405.447 1185.52 405.563C1183 405.784 1180.73 407.146 1178.73 409.648C1176.73 412.04 1175.23 415.218 1174.25 419.183C1173.27 423.148 1172.98 427.44 1173.38 432.059C1174.5 444.817 1180.61 450.71 1191.72 449.738C1196.23 449.343 1200.94 447.435 1205.84 444.013C1210.85 440.472 1215.62 435.456 1220.15 428.964C1221.34 427.309 1222.76 426.409 1224.41 426.265C1225.84 426.14 1226.99 426.704 1227.88 427.956C1228.87 429.199 1229.47 430.975 1229.67 433.284C1230.04 437.464 1229.29 440.964 1227.43 443.787C1222.82 450.618 1217.04 456.111 1210.09 460.265C1203.24 464.3 1196.46 466.611 1189.75 467.198Z" fill="#403F3D"/>
<path d="M1094.88 475.498C1090.7 475.863 1087.54 473.924 1085.4 469.678C1083.36 465.423 1081.92 458.457 1081.07 448.779C1079.82 434.481 1080.67 420.721 1083.61 407.497C1084.32 404.221 1085.72 401.772 1087.79 400.15C1089.97 398.408 1093.09 397.359 1097.16 397.003C1099.36 396.811 1100.92 396.951 1101.85 397.424C1102.78 397.897 1103.31 398.903 1103.44 400.443C1103.6 402.203 1103.12 406.234 1102.01 412.537C1101.29 417.033 1100.75 420.959 1100.38 424.316C1100.01 427.673 1099.81 431.79 1099.8 436.668C1102.6 426.892 1105.99 418.838 1109.98 412.504C1113.97 406.171 1118 401.552 1122.07 398.647C1126.25 395.733 1130.15 394.117 1133.78 393.799C1140.93 393.174 1144.82 396.435 1145.44 403.584C1145.57 405.014 1145.38 408.521 1144.87 414.107C1144.37 418.583 1144.17 421.371 1144.27 422.471C1144.61 426.32 1146.15 428.125 1148.9 427.884C1151.98 427.615 1155.72 424.849 1160.14 419.586C1161.45 418.031 1162.87 417.187 1164.41 417.052C1165.84 416.927 1166.99 417.49 1167.88 418.743C1168.87 419.876 1169.45 421.487 1169.63 423.576C1169.99 427.646 1169.17 430.931 1167.17 433.433C1164.37 436.892 1160.98 439.959 1157 442.634C1153.13 445.19 1148.88 446.67 1144.26 447.074C1138.43 447.584 1133.85 446.489 1130.51 443.789C1127.28 441.079 1125.44 437.195 1125 432.136C1124.86 430.486 1124.88 428.822 1125.06 427.143C1125.09 424.925 1125.07 423.43 1125 422.66C1124.85 420.901 1124.17 420.074 1122.96 420.18C1121.31 420.324 1119.27 422.386 1116.85 426.366C1114.53 430.226 1112.31 435.296 1110.2 441.576C1108.09 447.856 1106.5 454.422 1105.44 461.275C1104.68 466.55 1103.56 470.195 1102.07 472.209C1100.69 474.103 1098.29 475.199 1094.88 475.498Z" fill="#403F3D"/>
<path d="M1023.79 481.717C1018.85 482.15 1014.58 480.252 1011 476.021C1007.51 471.672 1005.47 466.087 1004.88 459.269C1004.15 451.02 1004.04 443.438 1004.55 436.523C1005.04 429.499 1006.22 422.026 1008.07 414.106C1008.88 410.711 1010.22 408.211 1012.07 406.608C1013.92 405.005 1017 404.016 1021.29 403.641C1023.71 403.429 1025.39 403.67 1026.34 404.363C1027.39 405.046 1027.99 406.158 1028.12 407.697C1028.2 408.577 1027.86 411.6 1027.09 416.765C1026.34 420.93 1025.79 424.691 1025.42 428.048C1024.23 439.789 1023.8 447.584 1024.14 451.433C1024.34 453.742 1024.76 455.368 1025.4 456.31C1026.02 457.142 1026.94 457.504 1028.15 457.399C1029.8 457.254 1031.69 455.427 1033.82 451.916C1036.06 448.395 1038.26 443.16 1040.43 436.21C1042.7 429.252 1044.73 420.762 1046.51 410.743C1047.1 407.367 1048.21 404.887 1049.85 403.303C1051.59 401.71 1054.28 400.755 1057.91 400.437C1060.44 400.216 1062.23 400.392 1063.28 400.965C1064.31 401.428 1064.9 402.485 1065.05 404.134C1065.29 406.884 1064.57 414.538 1062.9 427.096C1061.05 441.443 1060.27 450.266 1060.56 453.566C1060.75 455.655 1061.33 457.266 1062.32 458.399C1063.29 459.422 1064.49 459.871 1065.92 459.746C1068.12 459.553 1070.59 458.007 1073.33 455.108C1076.17 452.089 1079.85 447.334 1084.38 440.842C1085.57 439.187 1086.99 438.288 1088.64 438.143C1090.07 438.018 1091.22 438.582 1092.11 439.834C1093.1 441.077 1093.7 442.853 1093.91 445.163C1094.29 449.562 1093.54 453.063 1091.67 455.665C1087.45 461.908 1082.75 467.139 1077.58 471.36C1072.52 475.571 1066.52 477.979 1059.59 478.585C1054.31 479.047 1050.23 477.354 1047.35 473.506C1044.57 469.648 1042.86 464.035 1042.22 456.667C1041 464.309 1038.7 470.328 1035.32 474.725C1031.93 479.011 1028.08 481.342 1023.79 481.717Z" fill="#403F3D"/>
<path d="M1012.17 430.87C1013.6 430.745 1014.76 431.363 1015.66 432.726C1016.55 434.088 1017.1 435.869 1017.29 438.069C1017.75 443.348 1016.43 446.622 1013.33 447.89C1006.93 450.777 999.787 452.732 991.897 453.755C990.616 463.176 987.141 470.961 981.473 477.108C975.795 483.146 969.052 486.507 961.244 487.19C954.645 487.767 948.841 486.668 943.833 483.892C938.935 481.107 935.045 477.181 932.164 472.113C929.282 467.046 927.572 461.433 927.033 455.274C926.302 446.916 927.247 439.352 929.869 432.584C932.481 425.707 936.433 420.208 941.724 416.088C947.006 411.858 953.056 409.444 959.875 408.848C968.234 408.116 975.197 410.444 980.767 415.83C986.436 421.097 990.081 427.926 991.702 436.318C996.842 435.535 1002.9 433.897 1009.89 431.402C1010.75 431.105 1011.51 430.927 1012.17 430.87ZM961.033 469.588C964.553 469.28 967.452 467.585 969.732 464.505C972.121 461.414 973.52 457.136 973.928 451.67C970.317 449.659 967.413 446.865 965.216 443.289C963.129 439.704 961.903 435.822 961.537 431.642C961.383 429.883 961.394 428.109 961.57 426.32L960.745 426.392C956.346 426.777 952.849 429.244 950.255 433.793C947.761 438.223 946.851 444.287 947.525 451.985C948.054 458.034 949.613 462.552 952.201 465.54C954.9 468.517 957.844 469.867 961.033 469.588Z" fill="#403F3D"/>
<path d="M893.137 496.805C887.418 497.306 882.904 496.371 879.593 494.001C876.393 491.621 874.648 488.781 874.36 485.482C874.109 482.622 874.938 480.056 876.845 477.784C878.751 475.512 881.739 474.197 885.809 473.841C887.238 473.716 888.903 473.737 890.801 473.903C892.8 473.95 894.299 473.985 895.299 474.009C894.938 471.159 894.043 468.522 892.612 466.098C891.291 463.665 889.649 461.37 887.687 459.215C885.716 456.949 883.884 455.004 882.19 453.379C879.348 460.166 876.41 465.853 873.376 470.441C870.452 475.019 867.179 479.405 863.556 483.601C861.75 485.754 859.747 486.927 857.547 487.119C855.787 487.273 854.305 486.793 853.099 485.68C851.884 484.456 851.194 482.91 851.031 481.04C850.838 478.84 851.43 476.738 852.806 474.734L854.72 471.907C860.115 463.899 864.14 457.341 866.796 452.232C868.387 448.879 870.216 444.453 872.284 438.952C874.342 433.342 876.33 427.571 878.249 421.641C879.916 416.619 884.048 413.819 890.647 413.242C893.726 412.972 895.895 413.06 897.153 413.504C898.411 413.948 899.093 414.775 899.199 415.985C899.256 416.644 899.128 417.709 898.813 419.177C898.498 420.645 898.018 422.128 897.374 423.625C895.74 427.757 895.044 431.198 895.285 433.948C895.429 435.597 896.138 437.364 897.411 439.247C898.793 441.121 900.825 443.437 903.504 446.195C907.427 450.506 910.413 454.234 912.462 457.38C914.61 460.406 915.853 463.843 916.19 467.692C916.286 468.792 916.311 470.342 916.264 472.34C921.47 469.779 927.308 463.672 933.778 454.019C934.963 452.364 936.38 451.464 938.03 451.319C939.46 451.194 940.617 451.758 941.503 453.01C942.498 454.253 943.097 456.029 943.299 458.339C943.664 462.518 942.918 466.019 941.059 468.841C936.157 476.141 931.287 481.277 926.449 484.249C921.711 487.102 915.668 488.961 908.319 489.825C904.247 493.949 899.186 496.276 893.137 496.805Z" fill="#403F3D"/>
<path d="M867.658 457.476C869.088 457.351 870.245 457.915 871.131 459.167C872.126 460.41 872.725 462.186 872.927 464.496C873.311 468.895 872.565 472.396 870.687 474.998C867.051 480.303 861.676 485.373 854.563 490.206C847.56 495.03 839.824 497.812 831.356 498.553C819.808 499.564 810.57 497.213 803.643 491.503C796.716 485.792 792.776 477.492 791.823 466.604C791.159 459.016 792.138 451.838 794.76 445.07C797.372 438.192 801.314 432.583 806.586 428.243C811.969 423.893 818.234 421.406 825.383 420.78C831.762 420.222 837.044 421.7 841.23 425.212C845.407 428.615 847.779 433.56 848.346 440.049C849.01 447.638 846.833 454.422 841.815 460.402C836.898 466.263 828.09 471.355 815.391 475.68C818.583 480.499 824.029 482.571 831.727 481.898C836.676 481.465 842.136 479.269 848.107 475.311C854.178 471.234 859.277 466.189 863.406 460.176C864.591 458.52 866.008 457.621 867.658 457.476ZM823.993 437.193C819.923 437.549 816.666 440.216 814.22 445.196C811.885 450.165 811.01 456.005 811.597 462.713L811.626 463.043C817.98 460.936 822.892 458.179 826.362 454.772C829.832 451.366 831.389 447.628 831.033 443.559C830.85 441.469 830.101 439.872 828.785 438.768C827.57 437.545 825.972 437.02 823.993 437.193Z" fill="#403F3D"/>
<path d="M806.066 462.865C807.496 462.74 808.654 463.303 809.539 464.556C810.534 465.799 811.133 467.575 811.335 469.884C811.71 474.174 810.964 477.674 809.095 480.387C804.374 487.227 799.473 492.643 794.392 496.634C789.302 500.515 783.072 502.778 775.703 503.422C768.555 504.048 762.282 502.657 756.886 499.25C751.601 495.834 746.294 489.649 740.967 480.695C736.683 473.534 733.343 468.285 730.945 464.949C728.538 461.502 726.222 459.101 723.998 457.744C721.884 456.377 719.327 455.659 716.329 455.589C716.091 457.937 715.462 465.306 714.44 477.697C714.041 483.273 713.785 486.675 713.671 487.904C713.158 494.709 711.41 500.071 708.429 503.989C705.437 507.797 700.587 509.994 693.878 510.581C686.51 511.226 679.778 509.654 673.684 505.865C667.69 501.956 662.817 496.288 659.064 488.858C655.301 481.319 652.987 472.601 652.121 462.702C650.504 444.226 652.298 428 657.503 414.024C662.818 400.039 670.942 389.022 681.874 380.973C692.906 372.804 706.011 368.056 721.188 366.728C731.747 365.804 740.739 366.624 748.167 369.188C755.595 371.752 761.259 375.69 765.159 381C769.169 386.301 771.482 392.471 772.098 399.51C772.637 405.669 771.681 411.848 769.231 418.046C766.882 424.125 762.99 429.675 757.555 434.694C752.121 439.713 745.321 443.688 737.155 446.619C742.559 447.587 746.83 449.54 749.969 452.479C753.107 455.419 756.375 459.843 759.774 465.751C763.431 472.081 766.878 476.655 770.117 479.475C773.466 482.285 777.12 483.517 781.079 483.17C784.599 482.862 787.852 481.414 790.839 478.826C793.817 476.127 797.475 471.706 801.814 465.564C802.999 463.909 804.417 463.009 806.066 462.865ZM693.549 457.415C689.809 457.743 687.148 457.089 685.564 455.454C684.091 453.81 683.258 451.888 683.065 449.689C682.834 447.049 683.476 444.887 684.991 443.203C686.616 441.51 688.528 440.567 690.728 440.374L694.852 440.013C695.669 429.081 696.506 419.644 697.362 411.7C698.167 404.427 702.473 400.448 710.282 399.765C716.55 399.217 719.93 401.747 720.421 407.356C720.527 408.566 720.554 409.505 720.501 410.175L717.948 437.993C723.858 437.143 729.122 435.242 733.74 432.289C738.468 429.326 742.064 425.466 744.529 420.706C747.104 415.937 748.141 410.693 747.641 404.974C747.035 398.046 744.194 392.808 739.118 389.263C734.043 385.717 726.941 384.344 717.813 385.143C707.035 386.085 697.812 389.607 690.145 395.709C682.578 401.69 677.002 410.157 673.417 421.11C669.822 431.952 668.683 444.907 670.001 459.974C670.617 467.013 671.861 472.999 673.734 477.933C675.606 482.867 677.698 486.508 680.009 488.854C682.32 491.201 684.41 492.293 686.279 492.129C687.709 492.004 688.801 491.188 689.556 489.681C690.421 488.165 690.989 485.788 691.26 482.551L693.549 457.415Z" fill="#403F3D"/>
<path d="M1155.98 645.6V605.455H1182.09V611.551H1163.25V622.45H1180.74V628.546H1163.25V639.504H1182.25V645.6H1155.98Z" fill="#403F3D"/>
<path d="M1139.19 616.491C1139.01 614.779 1138.24 613.446 1136.88 612.492C1135.53 611.538 1133.78 611.061 1131.63 611.061C1130.11 611.061 1128.81 611.29 1127.72 611.747C1126.64 612.204 1125.81 612.825 1125.23 613.609C1124.66 614.393 1124.37 615.288 1124.35 616.295C1124.35 617.131 1124.54 617.856 1124.92 618.471C1125.31 619.085 1125.84 619.607 1126.51 620.039C1127.18 620.457 1127.91 620.81 1128.72 621.097C1129.53 621.385 1130.35 621.627 1131.17 621.823L1134.94 622.763C1136.45 623.116 1137.91 623.593 1139.31 624.194C1140.72 624.796 1141.98 625.553 1143.09 626.468C1144.22 627.383 1145.11 628.487 1145.76 629.781C1146.41 631.075 1146.74 632.591 1146.74 634.329C1146.74 636.681 1146.14 638.752 1144.94 640.543C1143.73 642.32 1141.99 643.712 1139.72 644.718C1137.46 645.711 1134.72 646.208 1131.51 646.208C1128.38 646.208 1125.67 645.724 1123.37 644.757C1121.09 643.79 1119.3 642.379 1118 640.523C1116.72 638.667 1116.03 636.407 1115.92 633.741H1123.08C1123.18 635.139 1123.61 636.302 1124.37 637.23C1125.13 638.158 1126.12 638.85 1127.33 639.308C1128.56 639.765 1129.93 639.994 1131.45 639.994C1133.03 639.994 1134.42 639.759 1135.6 639.288C1136.81 638.805 1137.75 638.138 1138.43 637.289C1139.11 636.426 1139.45 635.42 1139.47 634.27C1139.45 633.225 1139.15 632.362 1138.54 631.682C1137.94 630.99 1137.1 630.415 1136.02 629.957C1134.94 629.487 1133.69 629.069 1132.25 628.703L1127.69 627.527C1124.38 626.677 1121.77 625.39 1119.84 623.665C1117.94 621.927 1116.98 619.621 1116.98 616.746C1116.98 614.38 1117.62 612.309 1118.9 610.532C1120.2 608.754 1121.95 607.376 1124.18 606.396C1126.4 605.402 1128.91 604.906 1131.72 604.906C1134.57 604.906 1137.07 605.402 1139.21 606.396C1141.37 607.376 1143.06 608.741 1144.29 610.492C1145.52 612.23 1146.15 614.23 1146.19 616.491H1139.19Z" fill="#403F3D"/>
<path d="M1099.44 605.455H1106.71V631.682C1106.71 634.557 1106.03 637.086 1104.67 639.269C1103.33 641.451 1101.43 643.156 1098.99 644.385C1096.54 645.6 1093.69 646.208 1090.42 646.208C1087.14 646.208 1084.28 645.6 1081.83 644.385C1079.39 643.156 1077.5 641.451 1076.15 639.269C1074.8 637.086 1074.13 634.557 1074.13 631.682V605.455H1081.4V631.075C1081.4 632.747 1081.77 634.237 1082.5 635.544C1083.25 636.851 1084.29 637.877 1085.64 638.622C1086.98 639.353 1088.58 639.719 1090.42 639.719C1092.26 639.719 1093.86 639.353 1095.2 638.622C1096.56 637.877 1097.61 636.851 1098.34 635.544C1099.07 634.237 1099.44 632.747 1099.44 631.075V605.455Z" fill="#403F3D"/>
<path d="M1064.5 625.527C1064.5 629.853 1063.68 633.558 1062.06 636.642C1060.46 639.713 1058.26 642.065 1055.48 643.699C1052.71 645.332 1049.56 646.149 1046.05 646.149C1042.53 646.149 1039.38 645.332 1036.6 643.699C1033.83 642.052 1031.64 639.693 1030.01 636.622C1028.41 633.538 1027.6 629.84 1027.6 625.527C1027.6 621.202 1028.41 617.503 1030.01 614.432C1031.64 611.348 1033.83 608.99 1036.6 607.356C1039.38 605.723 1042.53 604.906 1046.05 604.906C1049.56 604.906 1052.71 605.723 1055.48 607.356C1058.26 608.99 1060.46 611.348 1062.06 614.432C1063.68 617.503 1064.5 621.202 1064.5 625.527ZM1057.18 625.527C1057.18 622.482 1056.71 619.915 1055.75 617.824C1054.81 615.72 1053.5 614.132 1051.83 613.06C1050.16 611.976 1048.23 611.433 1046.05 611.433C1043.87 611.433 1041.94 611.976 1040.27 613.06C1038.59 614.132 1037.28 615.72 1036.33 617.824C1035.39 619.915 1034.92 622.482 1034.92 625.527C1034.92 628.572 1035.39 631.147 1036.33 633.251C1037.28 635.342 1038.59 636.929 1040.27 638.014C1041.94 639.086 1043.87 639.621 1046.05 639.621C1048.23 639.621 1050.16 639.086 1051.83 638.014C1053.5 636.929 1054.81 635.342 1055.75 633.251C1056.71 631.147 1057.18 628.572 1057.18 625.527Z" fill="#403F3D"/>
<path d="M984.787 645.6V605.455H992.06V622.45H1010.66V605.455H1017.95V645.6H1010.66V628.546H992.06V645.6H984.787Z" fill="#403F3D"/>
<path d="M932.045 645.6V605.455H958.155V611.551H939.317V622.45H956.803V628.546H939.317V639.504H958.312V645.6H932.045Z" fill="#403F3D"/>
<path d="M895.756 645.6V605.455H921.866V611.551H903.028V622.45H920.514V628.546H903.028V639.504H922.023V645.6H895.756Z" fill="#403F3D"/>
<path d="M860.652 645.6V605.455H886.371V611.551H867.925V622.45H884.606V628.546H867.925V645.6H860.652Z" fill="#403F3D"/>
<path d="M825.549 645.6V605.455H851.267V611.551H832.821V622.45H849.503V628.546H832.821V645.6H825.549Z" fill="#403F3D"/>
<path d="M815.913 625.527C815.913 629.853 815.103 633.558 813.482 636.642C811.875 639.713 809.679 642.065 806.896 643.699C804.125 645.332 800.983 646.149 797.467 646.149C793.952 646.149 790.802 645.332 788.019 643.699C785.248 642.052 783.053 639.693 781.433 636.622C779.825 633.538 779.021 629.84 779.021 625.527C779.021 621.202 779.825 617.503 781.433 614.432C783.053 611.348 785.248 608.99 788.019 607.356C790.802 605.723 793.952 604.906 797.467 604.906C800.983 604.906 804.125 605.723 806.896 607.356C809.679 608.99 811.875 611.348 813.482 614.432C815.103 617.503 815.913 621.202 815.913 625.527ZM808.601 625.527C808.601 622.482 808.124 619.915 807.17 617.824C806.229 615.72 804.923 614.132 803.25 613.06C801.577 611.976 799.65 611.433 797.467 611.433C795.285 611.433 793.357 611.976 791.685 613.06C790.012 614.132 788.698 615.72 787.744 617.824C786.804 619.915 786.333 622.482 786.333 625.527C786.333 628.572 786.804 631.147 787.744 633.251C788.698 635.342 790.012 636.929 791.685 638.014C793.357 639.086 795.285 639.621 797.467 639.621C799.65 639.621 801.577 639.086 803.25 638.014C804.923 636.929 806.229 635.342 807.17 633.251C808.124 631.147 808.601 628.572 808.601 625.527Z" fill="#403F3D"/>
<path d="M770.62 619H763.289C763.08 617.798 762.695 616.732 762.133 615.805C761.571 614.864 760.872 614.067 760.035 613.413C759.199 612.76 758.245 612.27 757.173 611.943C756.115 611.603 754.971 611.433 753.743 611.433C751.56 611.433 749.626 611.982 747.941 613.08C746.255 614.165 744.935 615.759 743.981 617.863C743.027 619.954 742.55 622.509 742.55 625.527C742.55 628.598 743.027 631.186 743.981 633.29C744.948 635.381 746.268 636.962 747.941 638.034C749.626 639.092 751.554 639.621 753.723 639.621C754.925 639.621 756.049 639.465 757.095 639.151C758.153 638.824 759.101 638.347 759.937 637.72C760.787 637.093 761.499 636.322 762.074 635.407C762.662 634.492 763.067 633.447 763.289 632.271L770.62 632.31C770.346 634.218 769.751 636.008 768.837 637.681C767.935 639.354 766.752 640.83 765.289 642.111C763.825 643.379 762.113 644.372 760.153 645.09C758.193 645.796 756.017 646.149 753.625 646.149C750.097 646.149 746.947 645.332 744.177 643.699C741.406 642.065 739.224 639.706 737.63 636.622C736.035 633.538 735.238 629.84 735.238 625.527C735.238 621.202 736.042 617.503 737.649 614.432C739.257 611.348 741.446 608.99 744.216 607.356C746.987 605.723 750.123 604.906 753.625 604.906C755.86 604.906 757.938 605.219 759.859 605.847C761.78 606.474 763.492 607.395 764.995 608.611C766.497 609.813 767.732 611.29 768.699 613.041C769.679 614.779 770.32 616.765 770.62 619Z" fill="#403F3D"/>
<path d="M775.628 911V907.193L785.728 897.293C786.694 896.317 787.498 895.451 788.142 894.693C788.786 893.936 789.269 893.202 789.591 892.491C789.913 891.781 790.074 891.024 790.074 890.219C790.074 889.3 789.866 888.514 789.449 887.861C789.033 887.198 788.46 886.687 787.73 886.327C787.001 885.967 786.173 885.787 785.245 885.787C784.288 885.787 783.45 885.986 782.73 886.384C782.011 886.772 781.452 887.326 781.054 888.045C780.666 888.765 780.472 889.622 780.472 890.616H775.458C775.458 888.77 775.879 887.165 776.722 885.801C777.565 884.437 778.725 883.382 780.202 882.634C781.689 881.885 783.393 881.511 785.316 881.511C787.266 881.511 788.98 881.876 790.458 882.605C791.935 883.334 793.081 884.333 793.895 885.602C794.719 886.871 795.131 888.32 795.131 889.949C795.131 891.038 794.923 892.108 794.506 893.159C794.089 894.21 793.355 895.375 792.304 896.653C791.263 897.932 789.8 899.48 787.915 901.298L782.901 906.398V906.597H795.571V911H775.628ZM813.225 911.554C810.886 911.554 808.878 910.962 807.202 909.778C805.535 908.585 804.252 906.866 803.353 904.622C802.462 902.368 802.017 899.655 802.017 896.483C802.027 893.311 802.477 890.612 803.367 888.386C804.266 886.152 805.55 884.447 807.216 883.273C808.892 882.098 810.895 881.511 813.225 881.511C815.554 881.511 817.557 882.098 819.233 883.273C820.909 884.447 822.193 886.152 823.083 888.386C823.982 890.621 824.432 893.32 824.432 896.483C824.432 899.665 823.982 902.383 823.083 904.636C822.193 906.881 820.909 908.595 819.233 909.778C817.567 910.962 815.564 911.554 813.225 911.554ZM813.225 907.108C815.043 907.108 816.478 906.213 817.529 904.423C818.589 902.624 819.12 899.977 819.12 896.483C819.12 894.172 818.878 892.231 818.395 890.659C817.912 889.087 817.23 887.903 816.35 887.108C815.469 886.303 814.427 885.901 813.225 885.901C811.416 885.901 809.986 886.8 808.935 888.599C807.884 890.389 807.354 893.017 807.344 896.483C807.335 898.803 807.567 900.754 808.04 902.335C808.523 903.917 809.205 905.11 810.086 905.915C810.966 906.71 812.013 907.108 813.225 907.108ZM831.152 911V907.193L841.251 897.293C842.217 896.317 843.022 895.451 843.666 894.693C844.31 893.936 844.793 893.202 845.115 892.491C845.437 891.781 845.598 891.024 845.598 890.219C845.598 889.3 845.389 888.514 844.973 887.861C844.556 887.198 843.983 886.687 843.254 886.327C842.525 885.967 841.696 885.787 840.768 885.787C839.812 885.787 838.974 885.986 838.254 886.384C837.534 886.772 836.975 887.326 836.578 888.045C836.19 888.765 835.995 889.622 835.995 890.616H830.981C830.981 888.77 831.403 887.165 832.245 885.801C833.088 884.437 834.248 883.382 835.725 882.634C837.212 881.885 838.917 881.511 840.839 881.511C842.79 881.511 844.504 881.876 845.981 882.605C847.458 883.334 848.604 884.333 849.419 885.602C850.243 886.871 850.654 888.32 850.654 889.949C850.654 891.038 850.446 892.108 850.029 893.159C849.613 894.21 848.879 895.375 847.828 896.653C846.786 897.932 845.323 899.48 843.439 901.298L838.424 906.398V906.597H851.095V911H831.152ZM868.436 911.398C866.39 911.398 864.572 911.047 862.981 910.347C861.4 909.646 860.15 908.67 859.231 907.42C858.313 906.17 857.825 904.726 857.768 903.088H863.109C863.156 903.874 863.417 904.561 863.89 905.148C864.364 905.725 864.993 906.175 865.779 906.497C866.565 906.819 867.446 906.98 868.422 906.98C869.463 906.98 870.386 906.8 871.191 906.44C871.996 906.071 872.626 905.56 873.081 904.906C873.535 904.253 873.758 903.5 873.748 902.648C873.758 901.767 873.53 900.991 873.066 900.318C872.602 899.646 871.93 899.12 871.049 898.741C870.178 898.363 869.127 898.173 867.896 898.173H865.325V894.111H867.896C868.909 894.111 869.795 893.936 870.552 893.585C871.319 893.235 871.921 892.742 872.356 892.108C872.792 891.464 873.005 890.721 872.995 889.878C873.005 889.054 872.82 888.339 872.441 887.733C872.072 887.117 871.547 886.639 870.865 886.298C870.192 885.957 869.402 885.787 868.493 885.787C867.602 885.787 866.779 885.948 866.021 886.27C865.263 886.592 864.653 887.051 864.189 887.648C863.725 888.235 863.478 888.936 863.45 889.75H858.379C858.417 888.121 858.886 886.691 859.785 885.46C860.694 884.22 861.906 883.254 863.422 882.562C864.937 881.862 866.636 881.511 868.521 881.511C870.462 881.511 872.148 881.876 873.578 882.605C875.017 883.325 876.13 884.295 876.916 885.517C877.702 886.739 878.095 888.088 878.095 889.565C878.104 891.204 877.621 892.577 876.646 893.685C875.68 894.793 874.411 895.517 872.839 895.858V896.085C874.885 896.369 876.452 897.127 877.541 898.358C878.639 899.58 879.184 901.099 879.174 902.918C879.174 904.546 878.71 906.005 877.782 907.293C876.864 908.571 875.595 909.575 873.975 910.304C872.366 911.033 870.519 911.398 868.436 911.398ZM897.172 901.227H901.945L904.772 904.892L906.789 907.278L911.632 913.5H906.519L903.223 909.324L901.817 907.335L897.172 901.227ZM912.328 896.455C912.328 899.589 911.741 902.274 910.567 904.509C909.402 906.734 907.811 908.438 905.794 909.622C903.787 910.806 901.509 911.398 898.962 911.398C896.415 911.398 894.132 910.806 892.115 909.622C890.108 908.429 888.517 906.72 887.343 904.494C886.178 902.259 885.596 899.58 885.596 896.455C885.596 893.32 886.178 890.64 887.343 888.415C888.517 886.18 890.108 884.471 892.115 883.287C894.132 882.103 896.415 881.511 898.962 881.511C901.509 881.511 903.787 882.103 905.794 883.287C907.811 884.471 909.402 886.18 910.567 888.415C911.741 890.64 912.328 893.32 912.328 896.455ZM907.03 896.455C907.03 894.248 906.685 892.387 905.993 890.872C905.311 889.348 904.364 888.197 903.152 887.42C901.94 886.634 900.543 886.241 898.962 886.241C897.381 886.241 895.984 886.634 894.772 887.42C893.56 888.197 892.608 889.348 891.917 890.872C891.235 892.387 890.894 894.248 890.894 896.455C890.894 898.661 891.235 900.527 891.917 902.051C892.608 903.566 893.56 904.717 894.772 905.503C895.984 906.279 897.381 906.668 898.962 906.668C900.543 906.668 901.94 906.279 903.152 905.503C904.364 904.717 905.311 903.566 905.993 902.051C906.685 900.527 907.03 898.661 907.03 896.455ZM918.54 905.602V901.412L930.884 881.909H934.378V887.875H932.248L923.938 901.043V901.27H941.168V905.602H918.54ZM932.418 911V904.324L932.475 902.449V881.909H937.446V911H932.418ZM977.043 894.338V898.571H957.043V894.338H977.043ZM1009.64 889.906C1009.51 888.666 1008.95 887.7 1007.97 887.009C1006.99 886.317 1005.72 885.972 1004.16 885.972C1003.06 885.972 1002.12 886.137 1001.33 886.469C1000.55 886.8 999.947 887.25 999.53 887.818C999.114 888.386 998.9 889.035 998.891 889.764C998.891 890.37 999.028 890.896 999.303 891.341C999.587 891.786 999.971 892.165 1000.45 892.477C1000.94 892.78 1001.47 893.036 1002.06 893.244C1002.65 893.453 1003.24 893.628 1003.83 893.77L1006.56 894.452C1007.66 894.707 1008.72 895.053 1009.73 895.489C1010.75 895.924 1011.67 896.473 1012.47 897.136C1013.28 897.799 1013.93 898.599 1014.4 899.537C1014.88 900.474 1015.11 901.573 1015.11 902.832C1015.11 904.537 1014.68 906.038 1013.81 907.335C1012.93 908.623 1011.68 909.632 1010.03 910.361C1008.39 911.08 1006.41 911.44 1004.08 911.44C1001.81 911.44 999.847 911.09 998.181 910.389C996.524 909.688 995.226 908.666 994.289 907.321C993.361 905.976 992.859 904.338 992.783 902.406H997.968C998.043 903.42 998.356 904.262 998.905 904.935C999.454 905.607 1000.17 906.109 1001.05 906.44C1001.94 906.772 1002.93 906.938 1004.03 906.938C1005.18 906.938 1006.18 906.767 1007.04 906.426C1007.92 906.076 1008.6 905.593 1009.09 904.977C1009.58 904.352 1009.83 903.623 1009.84 902.79C1009.83 902.032 1009.61 901.407 1009.18 900.915C1008.74 900.413 1008.13 899.996 1007.34 899.665C1006.57 899.324 1005.66 899.021 1004.62 898.756L1001.31 897.903C998.91 897.288 997.016 896.355 995.624 895.105C994.241 893.846 993.55 892.174 993.55 890.091C993.55 888.377 994.014 886.876 994.942 885.588C995.88 884.3 997.153 883.301 998.763 882.591C1000.37 881.871 1002.2 881.511 1004.23 881.511C1006.3 881.511 1008.1 881.871 1009.66 882.591C1011.22 883.301 1012.45 884.291 1013.34 885.56C1014.23 886.819 1014.69 888.268 1014.71 889.906H1009.64ZM1032.48 889.182V893.159H1019.94V889.182H1032.48ZM1023.03 883.955H1028.17V904.438C1028.17 905.129 1028.28 905.659 1028.49 906.028C1028.7 906.388 1028.99 906.634 1029.34 906.767C1029.69 906.9 1030.08 906.966 1030.5 906.966C1030.83 906.966 1031.12 906.942 1031.38 906.895C1031.66 906.848 1031.87 906.805 1032.01 906.767L1032.88 910.787C1032.6 910.882 1032.21 910.986 1031.7 911.099C1031.2 911.213 1030.58 911.279 1029.85 911.298C1028.56 911.336 1027.4 911.142 1026.37 910.716C1025.34 910.28 1024.52 909.608 1023.91 908.699C1023.32 907.79 1023.02 906.653 1023.03 905.29V883.955ZM1045.06 911.44C1043.67 911.44 1042.43 911.194 1041.32 910.702C1040.22 910.2 1039.35 909.461 1038.71 908.486C1038.07 907.51 1037.76 906.308 1037.76 904.878C1037.76 903.647 1037.98 902.629 1038.44 901.824C1038.89 901.019 1039.51 900.375 1040.3 899.892C1041.08 899.409 1041.97 899.045 1042.95 898.798C1043.95 898.543 1044.98 898.358 1046.04 898.244C1047.32 898.112 1048.35 897.993 1049.15 897.889C1049.94 897.776 1050.52 897.605 1050.88 897.378C1051.25 897.141 1051.44 896.777 1051.44 896.284V896.199C1051.44 895.129 1051.12 894.3 1050.48 893.713C1049.85 893.126 1048.94 892.832 1047.74 892.832C1046.48 892.832 1045.48 893.107 1044.74 893.656C1044.02 894.205 1043.52 894.854 1043.27 895.602L1038.47 894.92C1038.85 893.595 1039.47 892.487 1040.34 891.597C1041.21 890.697 1042.28 890.025 1043.54 889.58C1044.8 889.125 1046.19 888.898 1047.71 888.898C1048.76 888.898 1049.81 889.021 1050.85 889.267C1051.89 889.513 1052.85 889.92 1053.71 890.489C1054.57 891.047 1055.26 891.81 1055.78 892.776C1056.31 893.741 1056.58 894.949 1056.58 896.398V911H1051.63V908.003H1051.46C1051.15 908.609 1050.71 909.177 1050.14 909.707C1049.58 910.228 1048.88 910.65 1048.03 910.972C1047.18 911.284 1046.19 911.44 1045.06 911.44ZM1046.39 907.662C1047.42 907.662 1048.32 907.458 1049.08 907.051C1049.83 906.634 1050.42 906.085 1050.82 905.403C1051.24 904.722 1051.45 903.978 1051.45 903.173V900.602C1051.29 900.735 1051.01 900.858 1050.63 900.972C1050.25 901.085 1049.82 901.185 1049.35 901.27C1048.87 901.355 1048.4 901.431 1047.94 901.497C1047.48 901.563 1047.07 901.62 1046.73 901.668C1045.97 901.772 1045.28 901.942 1044.67 902.179C1044.07 902.416 1043.59 902.747 1043.24 903.173C1042.89 903.59 1042.71 904.13 1042.71 904.793C1042.71 905.74 1043.06 906.455 1043.75 906.938C1044.44 907.42 1045.32 907.662 1046.39 907.662ZM1073.24 919.636C1071.39 919.636 1069.8 919.385 1068.48 918.884C1067.15 918.391 1066.09 917.728 1065.28 916.895C1064.48 916.062 1063.92 915.138 1063.61 914.125L1068.24 913.003C1068.44 913.429 1068.75 913.85 1069.15 914.267C1069.54 914.693 1070.08 915.044 1070.75 915.318C1071.43 915.602 1072.29 915.744 1073.32 915.744C1074.78 915.744 1075.99 915.389 1076.94 914.679C1077.9 913.978 1078.38 912.823 1078.38 911.213V907.08H1078.12C1077.86 907.61 1077.47 908.154 1076.96 908.713C1076.46 909.272 1075.79 909.741 1074.95 910.119C1074.13 910.498 1073.09 910.688 1071.84 910.688C1070.17 910.688 1068.65 910.295 1067.28 909.509C1065.93 908.713 1064.85 907.529 1064.05 905.957C1063.25 904.376 1062.85 902.397 1062.85 900.02C1062.85 897.624 1063.25 895.602 1064.05 893.955C1064.85 892.297 1065.94 891.043 1067.3 890.19C1068.66 889.329 1070.18 888.898 1071.86 888.898C1073.14 888.898 1074.19 889.116 1075.01 889.551C1075.85 889.977 1076.51 890.493 1077 891.099C1077.49 891.696 1077.87 892.259 1078.12 892.79H1078.41V889.182H1083.48V911.355C1083.48 913.221 1083.03 914.764 1082.14 915.986C1081.25 917.207 1080.04 918.121 1078.49 918.727C1076.95 919.333 1075.2 919.636 1073.24 919.636ZM1073.28 906.653C1074.37 906.653 1075.3 906.388 1076.06 905.858C1076.83 905.328 1077.41 904.565 1077.81 903.571C1078.21 902.577 1078.41 901.384 1078.41 899.991C1078.41 898.618 1078.21 897.416 1077.81 896.384C1077.42 895.351 1076.84 894.551 1076.08 893.983C1075.32 893.405 1074.39 893.116 1073.28 893.116C1072.13 893.116 1071.18 893.415 1070.41 894.011C1069.64 894.608 1069.06 895.427 1068.68 896.469C1068.29 897.501 1068.09 898.675 1068.09 899.991C1068.09 901.327 1068.29 902.496 1068.68 903.5C1069.07 904.494 1069.66 905.271 1070.42 905.83C1071.2 906.379 1072.15 906.653 1073.28 906.653ZM1100.41 911.426C1098.22 911.426 1096.33 910.972 1094.74 910.062C1093.16 909.144 1091.94 907.847 1091.09 906.17C1090.24 904.485 1089.81 902.501 1089.81 900.219C1089.81 897.974 1090.24 896.005 1091.09 894.31C1091.95 892.605 1093.15 891.279 1094.7 890.332C1096.24 889.376 1098.05 888.898 1100.14 888.898C1101.48 888.898 1102.75 889.116 1103.94 889.551C1105.15 889.977 1106.21 890.64 1107.13 891.54C1108.05 892.439 1108.78 893.585 1109.31 894.977C1109.84 896.36 1110.11 898.008 1110.11 899.92V901.497H1092.22V898.031H1105.18C1105.17 897.046 1104.96 896.17 1104.54 895.403C1104.12 894.627 1103.54 894.016 1102.79 893.571C1102.05 893.126 1101.19 892.903 1100.21 892.903C1099.16 892.903 1098.23 893.159 1097.44 893.67C1096.64 894.172 1096.02 894.835 1095.58 895.659C1095.14 896.473 1094.92 897.368 1094.91 898.344V901.369C1094.91 902.638 1095.14 903.727 1095.61 904.636C1096.07 905.536 1096.72 906.227 1097.55 906.71C1098.38 907.184 1099.36 907.42 1100.48 907.42C1101.23 907.42 1101.9 907.316 1102.51 907.108C1103.11 906.89 1103.64 906.573 1104.09 906.156C1104.53 905.74 1104.87 905.223 1105.09 904.608L1109.9 905.148C1109.59 906.417 1109.01 907.525 1108.16 908.472C1107.32 909.409 1106.24 910.138 1104.92 910.659C1103.61 911.17 1102.1 911.426 1100.41 911.426ZM1140.16 881.909V911H1134.89V887.037H1134.72L1127.91 891.384V886.554L1135.14 881.909H1140.16Z" fill="#403F3D"/>
</svg>
